<svg width="870" height="803" viewBox="0 0 870 803" fill="none" xmlns="http://www.w3.org/2000/svg">
<path d="M985.345 728.873C994.579 692.68 1033.19 604.603 1113.77 541.84C1194.35 479.077 1220.23 521.898 1229.1 469.411C1239.96 405.192 1143.58 414.96 1090.28 377.853C1067.76 362.174 1041.12 363.369 1033.04 337.094C1024.56 309.523 1061.24 268.725 1061.24 268.725C1061.24 268.725 1096.57 225.967 1091.46 195.473C1083.29 146.683 1023.84 151.155 974.625 147.274C941.557 144.666 918.673 175.484 890.354 158.225C867.864 144.518 875.194 118.863 857.79 99.0743C815.464 50.9484 763.91 40.0048 700.834 51.4673C654.65 59.8599 653.658 152.013 596.416 111.254C539.174 70.4956 542.756 124.02 510.969 138.865C474.728 155.79 446.583 161.05 425.186 194.909C400.791 233.51 420.823 266.031 416.955 311.521C414.578 339.472 415.092 355.407 410.237 383.04C403.418 421.854 394.86 442.692 381.695 479.843C369.292 514.845 331.248 533.49 345.432 567.746C359.615 602.002 401.028 585.333 433.058 603.895L434.625 604.803C478.751 630.37 507.387 646.962 533.777 691.163C558.686 732.883 524.073 783.959 563.653 812.065C593.37 833.168 621.189 831.026 656.484 821.789C699.25 810.597 699.355 751.965 743.444 749.086C776.299 746.94 790.251 770.42 821.334 781.218C864.469 796.203 893.344 830.763 934.477 810.751C968.283 794.303 976.111 765.065 985.345 728.873Z" stroke="#070707"/>
<path d="M532.709 146.138C525.721 185.443 491.576 282.363 410.903 355.602C330.23 428.841 299.428 385.231 294.086 441.877C287.551 511.184 389.128 493.192 448.609 528.552C473.741 543.494 501.934 540.124 512.557 567.496C523.705 596.218 487.931 642.59 487.931 642.59C487.931 642.59 453.75 690.947 461.544 723.049C474.016 774.413 536.785 764.97 589.346 765.236C624.659 765.415 646.559 730.765 677.969 746.934C702.916 759.776 697.129 787.699 717.147 807.424C765.832 855.393 821.421 863.003 887.502 845.824C935.884 833.245 929.767 734.94 993.716 773.883C1057.66 812.826 1049.7 756.054 1082.29 737.731C1119.45 716.839 1148.93 709.019 1169.01 671.245C1191.91 628.18 1168.11 595.091 1168.68 546.298C1169.03 516.317 1167.24 499.372 1170.24 469.536C1174.46 427.627 1181.93 404.741 1193.02 364.106C1203.46 325.821 1242.4 302.954 1224.68 267.556C1206.96 232.157 1164.28 253.181 1128.83 235.915L1127.1 235.071C1078.25 211.289 1046.56 195.855 1015.1 150.817C985.406 108.305 1018.18 51.139 973.971 24.293C940.777 4.13643 911.406 8.60758 874.65 21.2299C830.114 36.5239 834.565 99.0291 787.977 105.566C753.26 110.437 736.619 86.5062 702.776 77.4412C655.812 64.8615 622.464 30.2943 580.348 54.8612C545.734 75.0519 539.698 106.833 532.709 146.138Z" stroke="#070707"/>
<path d="M549.168 709.538C589.5 708.574 692.592 722.591 782.305 786.374C872.018 850.158 835.568 888.604 892.675 882.629C962.546 875.318 922.909 780.391 945.038 715.769C954.388 688.463 944.991 661.797 969.743 646.109C995.717 629.647 1049.23 655.197 1049.23 655.197C1049.23 655.197 1104.35 678.81 1134.39 664.933C1182.44 642.73 1159.6 583.741 1148.55 532.736C1141.13 498.468 1102.19 484.061 1111.4 450.428C1118.71 423.716 1147.54 423.828 1162.72 400.539C1199.63 343.899 1195.18 288.512 1163.99 227.837C1141.15 183.411 1045.35 208.697 1070.06 139.038C1094.76 69.3783 1040.4 88.2799 1015.28 60.2909C986.643 28.3787 972.573 1.34685 930.935 -10.685C883.465 -24.4021 855.901 5.18415 807.579 14.2414C777.887 19.8066 761.533 24.8735 731.412 27.8359C689.104 31.9971 664.889 29.2662 622.362 26.5195C582.294 23.9316 551.323 -9.31685 520.169 14.8357C489.016 38.9883 518.97 76.2161 509.545 113.984L509.084 115.83C496.103 167.859 487.679 201.624 449.959 240.988C414.356 278.144 350.829 257.626 333.826 305.77C321.059 341.918 331.798 369.509 352.178 402.655C376.872 442.818 437.66 426.195 454.145 470.07C466.43 502.766 446.371 523.61 444.701 558.202C442.383 606.206 415.413 645.34 448.747 681.33C476.142 710.909 508.837 710.503 549.168 709.538Z" stroke="#070707"/>
<path d="M490.662 329.626C496.457 359.735 498.687 438.533 461.243 512.843C423.799 587.154 389.874 564.123 401.6 606.243C415.946 657.779 483.448 617.52 535.561 626.91C557.581 630.877 576.761 620.87 591.843 637.669C607.669 655.298 594.875 698.23 594.875 698.23C594.875 698.23 583.762 742.158 598.124 763.116C621.103 796.65 663.275 772.976 700.83 759.022C726.061 749.647 732.176 718.868 759.009 722.028C780.32 724.537 783.851 746.149 803.536 754.928C851.408 776.278 893.137 766.784 935.548 736.662C966.6 714.608 935.279 645.65 991.561 656.41C1047.84 667.169 1026.59 628.54 1044.81 606.609C1065.58 581.603 1084.46 568.054 1088.42 535.52C1092.94 498.429 1066.89 481.069 1053.92 445.873C1045.94 424.247 1040.02 412.558 1033.98 390.32C1025.5 359.085 1024.55 340.64 1021.31 308.472C1018.26 278.164 1039.76 251.262 1017.41 230.608C995.063 209.954 970.398 236.538 940.381 233.679L938.913 233.539C897.563 229.602 870.728 227.047 835.943 203.167C803.109 180.626 810.806 130.749 771.916 123.366C742.717 117.822 722.999 128.938 700.249 147.895C672.684 170.864 692.999 214.558 661.57 231.79C638.148 244.632 619.719 231.923 593.099 234.52C556.158 238.124 522.898 222.272 499.602 251.25C480.455 275.066 484.866 299.516 490.662 329.626Z" stroke="#070707"/>
<path d="M1157.46 499.197C1132.64 467.47 1082.27 376.952 1079.33 268.692C1076.4 160.431 1128.62 167.624 1089.82 125.337C1042.35 73.5978 990.729 159.585 926.296 178.818C899.07 186.944 883.532 209.709 856.332 198.867C827.789 187.491 816.132 130.062 816.132 130.062C816.132 130.062 801.975 72.4456 773.06 56.3415C726.796 30.5749 693.647 82.5747 659.799 120.576C637.058 146.107 648.862 185.509 616.702 197.363C591.16 206.778 574.054 183.642 546.538 184.81C479.619 187.651 438.359 222.873 408.857 282.523C387.256 326.198 464.438 388.408 394.474 408.458C324.51 428.507 371.921 461.212 364.71 497.313C356.488 538.474 343.447 565.187 358.741 605.389C376.178 651.22 416.075 656.367 452.076 689.862C474.197 710.443 487.968 720.635 508.281 743.047C536.814 774.528 549.091 795.468 572.277 831.074C594.123 864.62 586.233 908.413 623.963 919.538C661.693 930.663 673.343 885.409 708.909 871.362L710.648 870.675C759.64 851.321 791.434 838.761 845.141 846.446C895.835 853.699 917.455 916.269 965.767 902.355C1002.04 891.908 1017.51 867.541 1031.64 832.282C1048.75 789.56 999.317 750.413 1024.27 712.139C1042.87 683.616 1071.36 687.754 1099.78 669.316C1139.22 643.729 1186.33 642.942 1194.99 595.69C1202.1 556.856 1182.28 530.923 1157.46 499.197Z" stroke="#070707"/>
</svg>
