<svg width="28" height="28" viewBox="0 0 28 28" fill="none" xmlns="http://www.w3.org/2000/svg">
<rect x="0.194445" y="0.194445" width="27.6112" height="27.6111" rx="13.8056" stroke="#070707" stroke-width="0.38889"/>
<path d="M17.8894 6.22217H10.1116C7.96378 6.22217 6.22266 7.96328 6.22266 10.1111V17.8888C6.22266 20.0366 7.96378 21.7777 10.1116 21.7777H17.8894C20.0372 21.7777 21.7783 20.0366 21.7783 17.8888V10.1111C21.7783 7.96328 20.0372 6.22217 17.8894 6.22217Z" stroke="#070707" stroke-width="0.777779" stroke-linecap="round" stroke-linejoin="round"/>
<path d="M17.1115 13.5117C17.2074 14.159 17.0969 14.8201 16.7955 15.4009C16.4941 15.9818 16.0172 16.4528 15.4327 16.747C14.8482 17.0412 14.1858 17.1436 13.5397 17.0396C12.8936 16.9357 12.2968 16.6307 11.8341 16.1679C11.3714 15.7052 11.0663 15.1084 10.9624 14.4623C10.8584 13.8162 10.9608 13.1538 11.255 12.5693C11.5492 11.9848 12.0202 11.5079 12.6011 11.2066C13.1819 10.9052 13.843 10.7946 14.4903 10.8906C15.1506 10.9885 15.7619 11.2962 16.2339 11.7682C16.7059 12.2401 17.0135 12.8514 17.1115 13.5117Z" stroke="#070707" stroke-width="0.777779" stroke-linecap="round" stroke-linejoin="round"/>
<path d="M18.2783 9.72485H18.2863" stroke="#070707" stroke-width="0.777779" stroke-linecap="round" stroke-linejoin="round"/>
</svg>
