<svg width="21" height="24" viewBox="0 0 21 24" fill="none" xmlns="http://www.w3.org/2000/svg">
<path d="M3.12972 15.9838C4.06666 16.3376 6.45062 17.7106 7.12495 20.061C7.79929 22.4114 7.42823 22.7832 8.79647 23.1837C10.4705 23.6737 10.3557 20.7596 11.4481 19.5574C11.9097 19.0494 11.8405 18.8835 12.5518 18.7718C13.2981 18.6545 14.452 19.6837 14.452 19.6837C14.452 19.6837 15.8051 21.1634 16.6216 21.1402C17.9279 21.1031 17.9479 19.1707 17.8432 17.9388C17.7477 16.8161 17.8241 16.5083 18.1391 15.6206L18.1435 15.6082C18.3582 15.003 18.3855 14.9261 18.9385 14.3254C20.0318 13.1375 20.7209 12.9533 20.5506 11.3416C20.4258 10.1615 18.3923 9.92027 19.5896 8.63226C20.7868 7.34426 18.4214 7.36031 18.096 6.51713C17.7249 5.55577 18.8495 3.93478 17.9998 3.2857C17.031 2.54572 16.2778 2.86533 14.6749 3.4742C13.9829 3.73705 13.3761 4.06834 12.6343 4.1104C11.5849 4.16989 11.0169 3.79864 10.4194 2.94233C9.775 2.01879 8.8684 0.0902405 7.93343 0.326912C6.99846 0.563584 6.41914 1.74449 6.19783 2.46935C5.82051 3.70517 5.75286 5.10795 4.39793 5.09069C2.98402 5.07269 2.06862 3.78435 1.24279 4.6752C0.622745 5.34407 0.923076 6.04197 1.63977 6.8818C3.09977 8.59267 3.18693 8.86551 2.58421 10.2171C2.2483 10.9703 2.06029 11.3786 1.70966 12.1167C1.22309 13.141 0.846832 13.3855 1.28921 14.4793C1.65278 15.3783 2.19278 15.63 3.12972 15.9838Z" fill="#070707" stroke="#070707" stroke-width="0.376106"/>
</svg>
