<svg width="29" height="28" viewBox="0 0 29 28" fill="none" xmlns="http://www.w3.org/2000/svg">
<rect x="0.417101" y="0.194445" width="27.6112" height="27.6111" rx="13.8056" stroke="#070707" stroke-width="0.38889"/>
<g clip-path="url(#clip0_125_366)">
<path d="M22.7782 7.02955C22.0334 7.55492 21.2087 7.95675 20.3359 8.21955C19.8675 7.68095 19.245 7.2992 18.5525 7.12594C17.8601 6.95267 17.1311 6.99626 16.4642 7.25079C15.7973 7.50532 15.2247 7.95853 14.8238 8.54911C14.4229 9.13969 14.213 9.83914 14.2226 10.5529V11.3307C12.8557 11.3661 11.5013 11.063 10.28 10.4482C9.0587 9.8335 8.00836 8.92627 7.22255 7.80733C7.22255 7.80733 4.11143 14.8073 11.1115 17.9184C9.50964 19.0057 7.60146 19.5509 5.66699 19.474C12.667 23.3629 21.2226 19.474 21.2226 10.5295C21.2219 10.3129 21.2011 10.0968 21.1604 9.88399C21.9542 9.10116 22.5144 8.11277 22.7782 7.02955Z" stroke="#070707" stroke-width="0.777779" stroke-linecap="round" stroke-linejoin="round"/>
</g>
<defs>
<clipPath id="clip0_125_366">
<rect width="18.6667" height="18.6229" fill="white" transform="translate(4.88965 4.68848)"/>
</clipPath>
</defs>
</svg>
