<svg width="193" height="82" viewBox="0 0 193 82" fill="none" xmlns="http://www.w3.org/2000/svg">
<path d="M21.4648 27.4509C21.7807 29.614 21.6544 35.2381 18.6221 40.4295C15.5899 45.621 13.1759 43.8826 13.8842 46.9189C14.7509 50.6338 19.8717 47.9555 23.6758 48.773C25.2832 49.1184 26.733 48.4595 27.782 49.7C28.8828 51.0018 27.782 54.0262 27.782 54.0262C27.782 54.0262 26.8014 57.1265 27.782 58.6615C29.351 61.1175 32.5448 59.5496 35.3626 58.6615C37.2558 58.0648 37.8197 55.8878 39.7846 56.1894C41.3452 56.4289 41.5256 57.9797 42.9432 58.6615C46.3909 60.3197 49.4997 59.7614 52.7349 57.7344C55.1036 56.2504 53.0507 51.2451 57.1569 52.1722C61.263 53.0992 59.8402 50.2848 61.263 48.773C62.8854 47.0493 64.3256 46.137 64.7375 43.8287C65.2071 41.1972 63.3525 39.8855 62.5265 37.3394C62.0189 35.7749 61.6259 34.9247 61.263 33.3222C60.7533 31.0712 60.7512 29.7534 60.6313 27.4509C60.5184 25.2815 62.2013 23.4246 60.6313 21.8886C59.0613 20.3526 57.1464 22.1778 54.9459 21.8886L54.8382 21.8745C51.8068 21.4763 49.8395 21.2179 47.3653 19.4165C45.0298 17.7161 45.7807 14.182 42.9432 13.5452C40.8128 13.067 39.3193 13.8034 37.5736 15.0902C35.4584 16.6495 36.7938 19.8223 34.415 20.9615C32.6424 21.8105 31.3317 20.852 29.3613 20.9615C26.6269 21.1135 24.2353 19.8888 22.4124 21.8886C20.9142 23.5321 21.149 25.2878 21.4648 27.4509Z" stroke="#F9F9F9"/>
<path d="M60.4577 48.6378C59.9462 46.3565 59.6224 40.3538 62.4202 34.5938C65.218 28.8338 67.9234 30.5049 66.9238 27.3226C65.7009 23.4291 60.4803 26.668 56.3735 26.0828C54.6382 25.8355 53.1521 26.6466 51.937 25.4035C50.6619 24.099 51.5848 20.7934 51.5848 20.7934C51.5848 20.7934 52.3739 17.416 51.2074 15.854C49.341 13.3547 46.0766 15.2656 43.1563 16.4237C41.1942 17.2018 40.7725 19.5641 38.661 19.3904C36.9841 19.2525 36.6662 17.6135 35.1051 16.9935C31.3085 15.4856 28.0522 16.3141 24.7812 18.7172C22.3863 20.4767 24.9741 25.6561 20.5376 24.9768C16.1011 24.2976 17.8415 27.1897 16.4534 28.9077C14.8707 30.8664 13.4154 31.9468 13.1658 34.4375C12.8813 37.2769 14.9578 38.5353 16.0424 41.1864C16.7089 42.8154 17.1954 43.6919 17.7113 45.3723C18.436 47.7326 18.5455 49.1367 18.8603 51.5814C19.1568 53.8846 17.5206 55.9898 19.3131 57.5086C21.1056 59.0274 22.9908 56.9385 25.3515 57.0813L25.4669 57.0883C28.719 57.2848 30.8294 57.4123 33.6039 59.1459C36.2227 60.7823 35.713 64.6047 38.7784 65.0702C41.08 65.4196 42.6062 64.5226 44.3555 63.0201C46.475 61.1996 44.7985 57.919 47.2321 56.5262C49.0456 55.4883 50.5157 56.4112 52.5995 56.1464C55.4913 55.7789 58.131 56.9042 59.9042 54.6363C61.3616 52.7723 60.9693 50.9191 60.4577 48.6378Z" stroke="#F9F9F9"/>
<path d="M46.0916 18.766C43.8774 19.7178 37.8408 21.2596 31.4075 19.8119C24.9743 18.3641 26.1158 15.472 23.0862 17.0691C19.3793 19.0231 23.7484 23.272 23.9996 27.2601C24.1057 28.9452 25.2367 30.1775 24.2231 31.578C23.1595 33.0476 19.6082 32.8597 19.6082 32.8597C19.6082 32.8597 16.0116 32.8126 14.6637 34.233C12.507 36.5056 15.1227 39.186 16.9021 41.6975C18.0975 43.3849 20.5863 43.2952 20.8449 45.3194C21.0502 46.9271 19.4492 47.5642 19.1404 49.1621C18.3896 53.0482 19.9031 55.944 23.0206 58.5291C25.3031 60.4219 30.0362 56.9176 30.2598 61.2355C30.4833 65.5535 33.0654 63.3186 35.0982 64.2717C37.416 65.3586 38.8145 66.5064 41.3983 66.2282C44.3441 65.911 45.1957 63.6962 47.6678 62.1285C49.1868 61.1652 49.9777 60.5264 51.58 59.6942C53.8307 58.5254 55.2358 58.1329 57.6566 57.3327C59.9374 56.5788 62.4152 57.6858 63.5901 55.6848C64.765 53.6838 62.2526 52.339 61.9113 50.0864L61.8946 49.9763C61.4242 46.8733 61.119 44.8595 62.31 41.8895C63.4342 39.086 67.4258 38.7784 67.2673 35.7957C67.1484 33.5562 65.9218 32.3038 64.0336 30.9661C61.7458 29.3452 58.7555 31.6001 56.8379 29.5953C55.4089 28.1014 56.0443 26.5268 55.3456 24.619C54.3761 21.9714 54.9763 19.2537 52.3049 18.0511C50.1093 17.0628 48.3058 17.8141 46.0916 18.766Z" stroke="#F9F9F9"/>
<path d="M58.7936 38.7906C57.7835 37.2917 55.8575 33.0805 56.2338 28.2269C56.6102 23.3733 59.018 23.8619 57.4044 21.8458C55.4302 19.3791 52.6083 23.0619 49.504 23.7167C48.1924 23.9934 47.3578 24.9624 46.1373 24.3904C44.8565 23.7902 44.5839 21.1833 44.5839 21.1833C44.5839 21.1833 44.1953 18.56 42.9196 17.747C40.8784 16.4463 39.0816 18.6673 37.3185 20.2596C36.134 21.3294 36.499 23.1302 34.9389 23.5579C33.6999 23.8976 33.0098 22.8077 31.7175 22.7721C28.5748 22.6856 26.4783 24.1298 24.8157 26.7048C23.5984 28.5901 26.9124 31.6202 23.5457 32.2939C20.1789 32.9676 22.2408 34.5825 21.7323 36.1748C21.1525 37.9904 20.416 39.144 20.9404 40.9917C21.5383 43.0982 23.3796 43.4559 24.9041 45.0696C25.8409 46.0612 26.4365 46.5612 27.28 47.6289C28.4649 49.1287 28.9396 50.1049 29.8549 51.7721C30.7173 53.343 30.1406 55.2773 31.8521 55.8956C33.5637 56.5139 34.3232 54.5262 36.0529 54.0112L36.1375 53.986C38.5203 53.2765 40.0666 52.816 42.5416 53.3313C44.8777 53.8178 45.5918 56.6866 47.917 56.2182C49.6628 55.8666 50.5018 54.8257 51.3296 53.2931C52.3326 51.4361 50.2067 49.5266 51.5552 47.8936C52.5601 46.6768 53.8727 46.9529 55.2892 46.2186C57.255 45.1996 59.4618 45.3148 60.0906 43.2282C60.6075 41.5132 59.8036 40.2895 58.7936 38.7906Z" stroke="#F9F9F9"/>
<path d="M17.7419 43.4821C19.8437 44.644 24.7072 48.415 27.3463 54.2037C29.9854 59.9923 26.9254 60.7683 30.0438 62.1895C33.8593 63.9283 34.7547 58.127 37.8873 55.6497C39.211 54.6029 39.5518 53.0253 41.308 53.0047C43.1508 52.9832 45.1108 55.8286 45.1108 55.8286C45.1108 55.8286 47.2136 58.6284 49.1852 58.8542C52.3398 59.2154 52.9883 55.6641 53.9959 52.8541C54.6728 50.9662 53.117 49.0989 54.629 47.7404C55.8299 46.6616 57.3075 47.531 58.8065 46.854C62.4519 45.2076 63.934 42.3825 64.2053 38.4988C64.404 35.6553 58.7016 34.0131 62.1222 31.3681C65.5429 28.7232 62.166 28.0124 61.7401 25.8993C61.2544 23.4902 61.3664 21.7547 59.5989 19.9221C57.5837 17.8327 55.2539 18.4444 52.4916 17.4363C50.7943 16.8168 49.7976 16.5729 48.1586 15.8141C45.8565 14.7483 44.6968 13.8899 42.5968 12.4818C40.6182 11.1551 40.0539 8.61102 37.7075 8.85109C35.361 9.09116 35.7502 11.7982 34.0995 13.3511L34.0188 13.4271C31.745 15.5666 30.2695 16.955 27.1158 17.7376C24.1392 18.4762 21.5092 15.5751 19.1487 17.4052C17.3764 18.7793 17.076 20.4421 17.0993 22.6638C17.1276 25.3558 20.764 26.3698 20.2558 28.9962C19.8772 30.9534 18.2029 31.3652 17.0487 32.9962C15.4471 35.2597 12.8529 36.3533 13.4539 39.1014C13.9478 41.36 15.64 42.3202 17.7419 43.4821Z" stroke="#F9F9F9"/>
<path d="M75.0022 53.2532C75.0022 55.0656 75.3664 56.6345 76.0947 57.96C76.823 59.2855 77.8615 60.3134 79.2103 61.0438C80.586 61.7471 82.218 62.0988 84.1063 62.0988C86.0215 62.0988 87.6535 61.7471 89.0022 61.0438C90.351 60.3134 91.3895 59.2855 92.1178 57.96C92.8462 56.6345 93.2103 55.0656 93.2103 53.2532V35.8867H98.5514V53.4561C98.5514 56.1341 97.9444 58.4875 96.7306 60.5163C95.5167 62.518 93.8308 64.087 91.6728 65.2231C89.5148 66.3322 86.9926 66.8867 84.1063 66.8867C81.2469 66.8867 78.7247 66.3322 76.5398 65.2231C74.3818 64.087 72.6958 62.518 71.4819 60.5163C70.2681 58.4875 69.6611 56.1341 69.6611 53.4561V35.8867H75.0022V53.2532Z" fill="#F9F9F9"/>
<path d="M109.084 49.6014H121.425C123.205 49.6014 124.608 49.1956 125.633 48.3841C126.685 47.5726 127.211 46.4635 127.211 45.0569C127.211 43.6232 126.685 42.5141 125.633 41.7297C124.608 40.9181 123.205 40.5124 121.425 40.5124H108.315L110.702 37.5098V66.3187H105.361V35.8867H121.911C124.042 35.8867 125.903 36.279 127.494 37.0634C129.113 37.8208 130.367 38.8893 131.257 40.2689C132.175 41.6214 132.633 43.2174 132.633 45.0569C132.633 46.8422 132.175 48.4247 131.257 49.8043C130.367 51.1568 129.113 52.2253 127.494 53.0098C125.903 53.7672 124.042 54.1459 121.911 54.1459H109.084V49.6014ZM115.072 52.0765H121.344L133.402 66.3187H127.009L115.072 52.0765Z" fill="#F9F9F9"/>
<path d="M150.661 35.8867V66.3187H145.32V37.5098L148.233 40.1066L135.528 42.3383V38.0778L146.655 35.8867H150.661Z" fill="#F9F9F9"/>
</svg>
