<svg aria-hidden="true" style="position: absolute; width: 0; height: 0; overflow: hidden;" version="1.1" xmlns="http://www.w3.org/2000/svg" xmlns:xlink="http://www.w3.org/1999/xlink">
<defs>
<symbol id="arrow-down-right" viewBox="0 0 24 24">
<path d="M16 7v7.586l-8.293-8.293c-0.391-0.391-1.024-0.391-1.414 0s-0.391 1.024 0 1.414l8.293 8.293h-7.586c-0.552 0-1 0.448-1 1s0.448 1 1 1h10c0.136 0 0.265-0.027 0.383-0.076s0.228-0.121 0.324-0.217c0.092-0.092 0.166-0.202 0.217-0.324 0.049-0.118 0.076-0.247 0.076-0.383v-10c0-0.552-0.448-1-1-1s-1 0.448-1 1z"></path>
</symbol>
<symbol id="arrow-right" viewBox="0 0 24 24">
<path d="M11.293 5.707l5.293 5.293h-11.586c-0.552 0-1 0.448-1 1s0.448 1 1 1h11.586l-5.293 5.293c-0.391 0.391-0.391 1.024 0 1.414s1.024 0.391 1.414 0l7-7c0.092-0.092 0.166-0.202 0.217-0.324 0.101-0.245 0.101-0.521 0-0.766-0.049-0.118-0.121-0.228-0.217-0.324l-7-7c-0.391-0.391-1.024-0.391-1.414 0s-0.391 1.024 0 1.414z"></path>
</symbol>
<symbol id="facebook" viewBox="0 0 32 32">
<path d="M31.997 15.999c0-8.836-7.163-15.999-15.999-15.999s-15.999 7.163-15.999 15.999c0 7.985 5.851 14.604 13.499 15.804v-11.18h-4.062v-4.625h4.062v-3.525c0-4.010 2.389-6.225 6.043-6.225 1.75 0 3.581 0.313 3.581 0.313v3.937h-2.017c-1.987 0-2.607 1.233-2.607 2.498v3.001h4.437l-0.709 4.625h-3.728v11.18c7.649-1.2 13.499-7.819 13.499-15.804z"></path>
</symbol>
<symbol id="instagram" viewBox="0 0 32 32">
<path d="M16 0c-4.347 0-4.889 0.020-6.596 0.096-1.704 0.080-2.864 0.348-3.884 0.744-1.052 0.408-1.945 0.956-2.835 1.845s-1.439 1.781-1.845 2.835c-0.396 1.020-0.665 2.18-0.744 3.884-0.080 1.707-0.096 2.249-0.096 6.596s0.020 4.889 0.096 6.596c0.080 1.703 0.348 2.864 0.744 3.884 0.408 1.051 0.956 1.945 1.845 2.835 0.889 0.888 1.781 1.439 2.835 1.845 1.021 0.395 2.181 0.665 3.884 0.744 1.707 0.080 2.249 0.096 6.596 0.096s4.889-0.020 6.596-0.096c1.703-0.080 2.864-0.349 3.884-0.744 1.051-0.408 1.945-0.957 2.835-1.845 0.888-0.889 1.439-1.78 1.845-2.835 0.395-1.020 0.665-2.181 0.744-3.884 0.080-1.707 0.096-2.249 0.096-6.596s-0.020-4.889-0.096-6.596c-0.080-1.703-0.349-2.865-0.744-3.884-0.408-1.052-0.957-1.945-1.845-2.835-0.889-0.889-1.78-1.439-2.835-1.845-1.020-0.396-2.181-0.665-3.884-0.744-1.707-0.080-2.249-0.096-6.596-0.096zM16 2.88c4.271 0 4.78 0.021 6.467 0.095 1.56 0.073 2.407 0.332 2.969 0.553 0.749 0.289 1.28 0.636 1.843 1.195 0.559 0.56 0.905 1.092 1.195 1.841 0.219 0.563 0.48 1.409 0.551 2.969 0.076 1.688 0.093 2.195 0.093 6.467s-0.020 4.78-0.099 6.467c-0.081 1.56-0.341 2.407-0.561 2.969-0.299 0.749-0.639 1.28-1.199 1.843-0.559 0.559-1.099 0.905-1.84 1.195-0.56 0.219-1.42 0.48-2.98 0.551-1.699 0.076-2.199 0.093-6.479 0.093-4.281 0-4.781-0.020-6.479-0.099-1.561-0.081-2.421-0.341-2.981-0.561-0.759-0.299-1.28-0.639-1.839-1.199-0.561-0.559-0.92-1.099-1.2-1.84-0.22-0.56-0.479-1.42-0.56-2.98-0.060-1.68-0.081-2.199-0.081-6.459 0-4.261 0.021-4.781 0.081-6.481 0.081-1.56 0.34-2.419 0.56-2.979 0.28-0.76 0.639-1.28 1.2-1.841 0.559-0.559 1.080-0.919 1.839-1.197 0.56-0.221 1.401-0.481 2.961-0.561 1.7-0.060 2.2-0.080 6.479-0.080zM16 7.784c-4.54 0-8.216 3.68-8.216 8.216 0 4.54 3.68 8.216 8.216 8.216 4.54 0 8.216-3.68 8.216-8.216 0-4.54-3.68-8.216-8.216-8.216zM16 21.333c-2.947 0-5.333-2.387-5.333-5.333s2.387-5.333 5.333-5.333 5.333 2.387 5.333 5.333-2.387 5.333-5.333 5.333zM26.461 7.46c0 1.060-0.861 1.92-1.92 1.92-1.060 0-1.92-0.861-1.92-1.92s0.861-1.919 1.92-1.919c1.057-0.001 1.92 0.86 1.92 1.919z"></path>
</symbol>
<symbol id="x" viewBox="0 0 32 32">
<path d="M24.325 3h4.411l-9.636 11.013 11.336 14.987h-8.876l-6.952-9.089-7.955 9.089h-4.413l10.307-11.78-10.875-14.22h9.101l6.284 8.308zM22.777 26.36h2.444l-15.776-20.859h-2.623z"></path>
</symbol>
<symbol id="xl" viewBox="0 0 24 24">
<path d="M5.293 6.707l5.293 5.293-5.293 5.293c-0.391 0.391-0.391 1.024 0 1.414s1.024 0.391 1.414 0l5.293-5.293 5.293 5.293c0.391 0.391 1.024 0.391 1.414 0s0.391-1.024 0-1.414l-5.293-5.293 5.293-5.293c0.391-0.391 0.391-1.024 0-1.414s-1.024-0.391-1.414 0l-5.293 5.293-5.293-5.293c-0.391-0.391-1.024-0.391-1.414 0s-0.391 1.024 0 1.414z"></path>
</symbol>
<symbol id="arrow-left-outline" viewBox="0 0 24 24">
<path d="M10.928 21c-0.801 0-1.555-0.312-2.121-0.879l-7.121-7.121 7.121-7.121c1.133-1.134 3.109-1.134 4.242 0 0.566 0.564 0.879 1.317 0.879 2.119 0 0.746-0.27 1.451-0.764 2.002h4.836c1.654 0 3 1.346 3 3s-1.346 3-3 3h-4.836c0.493 0.549 0.764 1.252 0.764 1.998 0.002 0.802-0.312 1.557-0.879 2.124-0.567 0.566-1.32 0.878-2.121 0.878zM4.514 13l5.707 5.707c0.379 0.378 1.035 0.378 1.414 0 0.189-0.189 0.293-0.441 0.293-0.708s-0.104-0.517-0.291-0.705l-3.295-3.294h9.658c0.552 0 1-0.449 1-1s-0.448-1-1-1h-9.658l3.293-3.293c0.189-0.189 0.293-0.441 0.293-0.708s-0.104-0.517-0.292-0.705c-0.381-0.38-1.036-0.379-1.415-0.001l-5.707 5.707z"></path>
</symbol>
<symbol id="arrow-right-outline" viewBox="0 0 24 24">
<path d="M12 21c-0.801 0-1.555-0.312-2.121-0.879s-0.88-1.321-0.879-2.123c0-0.746 0.271-0.998 0.764-1.998h-4.836c-1.654 0-3-1.347-3-3 0-1.654 1.346-3 3-3h4.836c-0.494-1-0.764-1.255-0.764-2.001 0.001-0.802 0.312-1.554 0.88-2.121 1.132-1.132 3.108-1.133 4.241 0.001l7.121 7.121-7.121 7.121c-0.566 0.567-1.32 0.879-2.121 0.879zM4.928 12c-0.552 0-1 0.449-1 1s0.448 1 1 1h9.658l-3.293 3.293c-0.189 0.189-0.293 0.439-0.293 0.706 0 0.269 0.104 0.519 0.293 0.708 0.379 0.378 1.035 0.378 1.414 0l5.707-5.707-5.707-5.707c-0.379-0.378-1.035-0.378-1.414 0-0.189 0.189-0.293 0.439-0.293 0.706 0 0.268 0.104 0.519 0.293 0.708l3.293 3.293h-9.658z"></path>
</symbol>
<symbol id="logo" viewBox="0 0 24 24">
<path d="M8.46484 15.4509C8.7807 17.614 8.65435 23.2381 5.62211 28.4295C2.58986 33.621 0.175851 31.8826 0.884227 34.9189C1.75094 38.6338 6.87171 35.9555 10.6758 36.773C12.2832 37.1184 13.733 36.4595 14.782 37.7C15.8828 39.0018 14.782 42.0262 14.782 42.0262C14.782 42.0262 13.8014 45.1265 14.782 46.6615C16.351 49.1175 19.5448 47.5496 22.3626 46.6615C24.2558 46.0648 24.8197 43.8878 26.7846 44.1894C28.3452 44.4289 28.5256 45.9797 29.9432 46.6615C33.3909 48.3197 36.4997 47.7614 39.7349 45.7344C42.1036 44.2504 40.0507 39.2451 44.1569 40.1722C48.263 41.0992 46.8402 38.2848 48.263 36.773C49.8854 35.0493 51.3256 34.137 51.7375 31.8287C52.2071 29.1972 50.3525 27.8855 49.5265 25.3394C49.0189 23.7749 48.6259 22.9247 48.263 21.3222C47.7533 19.0712 47.7512 17.7534 47.6313 15.4509C47.5184 13.2815 49.2013 11.4246 47.6313 9.88859C46.0613 8.35261 44.1464 10.1778 41.9459 9.88859L41.8382 9.87445C38.8068 9.47627 36.8395 9.21786 34.3653 7.41646C32.0298 5.71612 32.7807 2.18205 29.9432 1.54516C27.8128 1.06697 26.3193 1.80338 24.5736 3.09024C22.4584 4.64949 23.7938 7.82231 21.415 8.96154C19.6424 9.81049 18.3317 8.85204 16.3613 8.96154C13.6269 9.11351 11.2353 7.88883 9.41241 9.88859C7.91422 11.5321 8.14898 13.2878 8.46484 15.4509Z" stroke="#F9F9F9"/>
<path d="M48.4577 34.6378C47.9462 32.3565 47.6224 26.3538 50.4202 20.5938C53.218 14.8338 55.9234 16.5049 54.9238 13.3226C53.7009 9.42908 48.4803 12.668 44.3735 12.0828C42.6382 11.8355 41.1521 12.6466 39.937 11.4035C38.6619 10.099 39.5848 6.79339 39.5848 6.79339C39.5848 6.79339 40.3739 3.41605 39.2074 1.854C37.341 -0.645276 34.0766 1.26559 31.1563 2.42373C29.1942 3.20182 28.7725 5.56406 26.661 5.39041C24.9841 5.25249 24.6662 3.61347 23.1051 2.99345C19.3085 1.48558 16.0522 2.31414 12.7812 4.71723C10.3863 6.47671 12.9741 11.6561 8.53763 10.9768C4.10113 10.2976 5.84146 13.1897 4.45336 14.9077C2.87067 16.8664 1.41536 17.9468 1.16581 20.4375C0.881303 23.2769 2.95777 24.5353 4.0424 27.1864C4.70885 28.8154 5.19542 29.6919 5.71132 31.3723C6.43597 33.7326 6.54553 35.1367 6.86028 37.5814C7.15682 39.8846 5.52064 41.9898 7.31314 43.5086C9.10564 45.0274 10.9908 42.9385 13.3515 43.0813L13.4669 43.0883C16.719 43.2848 18.8294 43.4123 21.6039 45.1459C24.2227 46.7823 23.713 50.6047 26.7784 51.0702C29.08 51.4196 30.6062 50.5226 32.3555 49.0201C34.475 47.1996 32.7985 43.919 35.2321 42.5262C37.0456 41.4883 38.5157 42.4112 40.5995 42.1464C43.4913 41.7789 46.131 42.9042 47.9042 40.6363C49.3616 38.7723 48.9693 36.9191 48.4577 34.6378Z" stroke="#F9F9F9"/>
<path d="M33.0916 2.76595C30.8774 3.71783 24.8408 5.25963 18.4075 3.81186C11.9743 2.36409 13.1158 -0.527978 10.0862 1.06908C6.37928 3.02312 10.7484 7.27199 10.9996 11.2601C11.1057 12.9452 12.2367 14.1775 11.2231 15.578C10.1595 17.0476 6.60823 16.8597 6.60823 16.8597C6.60823 16.8597 3.01158 16.8126 1.66368 18.233C-0.492952 20.5056 2.12269 23.186 3.90207 25.6975C5.09755 27.3849 7.58635 27.2952 7.84488 29.3194C8.05021 30.9271 6.44918 31.5642 6.14045 33.1621C5.38963 37.0482 6.90313 39.944 10.0206 42.5291C12.3031 44.4219 17.0362 40.9176 17.2598 45.2355C17.4833 49.5535 20.0654 47.3186 22.0982 48.2717C24.416 49.3586 25.8145 50.5064 28.3983 50.2282C31.3441 49.911 32.1957 47.6962 34.6678 46.1285C36.1868 45.1652 36.9777 44.5264 38.58 43.6942C40.8307 42.5254 42.2358 42.1329 44.6566 41.3327C46.9374 40.5788 49.4152 41.6858 50.5901 39.6848C51.765 37.6838 49.2526 36.339 48.9113 34.0864L48.8946 33.9763C48.4242 30.8733 48.119 28.8595 49.31 25.8895C50.4342 23.086 54.4258 22.7784 54.2673 19.7957C54.1484 17.5562 52.9218 16.3038 51.0336 14.9661C48.7458 13.3452 45.7555 15.6001 43.8379 13.5953C42.4089 12.1014 43.0443 10.5268 42.3456 8.61896C41.3761 5.97143 41.9763 3.25367 39.3049 2.05111C37.1093 1.06278 35.3058 1.81408 33.0916 2.76595Z" stroke="#F9F9F9"/>
<path d="M38.7936 22.7906C37.7835 21.2917 35.8575 17.0805 36.2338 12.2269C36.6102 7.37329 39.018 7.8619 37.4044 5.84582C35.4302 3.37911 32.6083 7.06188 29.504 7.71671C28.1924 7.99339 27.3578 8.9624 26.1373 8.39042C24.8565 7.79022 24.5839 5.18326 24.5839 5.18326C24.5839 5.18326 24.1953 2.55995 22.9196 1.74702C20.8784 0.446327 19.0816 2.66726 17.3185 4.25957C16.134 5.32938 16.499 7.13018 14.9389 7.5579C13.6999 7.8976 13.0098 6.80773 11.7175 6.77213C8.57481 6.68557 6.47829 8.12985 4.81573 10.7048C3.59844 12.5901 6.91241 15.6202 3.54566 16.2939C0.178904 16.9676 2.24076 18.5825 1.73228 20.1748C1.15252 21.9904 0.415982 23.144 0.940427 24.9917C1.53832 27.0982 3.37956 27.4559 4.90412 29.0696C5.84089 30.0612 6.43649 30.5612 7.28004 31.6289C8.46491 33.1287 8.93964 34.1049 9.85494 35.7721C10.7173 37.343 10.1406 39.2773 11.8521 39.8956C13.5637 40.5139 14.3232 38.5262 16.0529 38.0112L16.1375 37.986C18.5203 37.2765 20.0666 36.816 22.5416 37.3313C24.8777 37.8178 25.5918 40.6866 27.917 40.2182C29.6628 39.8666 30.5018 38.8257 31.3296 37.2931C32.3326 35.4361 30.2067 33.5266 31.5552 31.8936C32.5601 30.6768 33.8727 30.9529 35.2892 30.2186C37.255 29.1996 39.4618 29.3148 40.0906 27.2282C40.6075 25.5132 39.8036 24.2895 38.7936 22.7906Z" stroke="#F9F9F9"/>
<path d="M5.74187 35.4821C7.84372 36.644 12.7072 40.415 15.3463 46.2037C17.9854 51.9923 14.9254 52.7683 18.0438 54.1895C21.8593 55.9283 22.7547 50.127 25.8873 47.6497C27.211 46.6029 27.5518 45.0253 29.308 45.0047C31.1508 44.9832 33.1108 47.8286 33.1108 47.8286C33.1108 47.8286 35.2136 50.6284 37.1852 50.8542C40.3398 51.2154 40.9883 47.6641 41.9959 44.8541C42.6728 42.9662 41.117 41.0989 42.629 39.7404C43.8299 38.6616 45.3075 39.531 46.8065 38.854C50.4519 37.2076 51.934 34.3825 52.2053 30.4988C52.404 27.6553 46.7016 26.0131 50.1222 23.3681C53.5429 20.7232 50.166 20.0124 49.7401 17.8993C49.2544 15.4902 49.3664 13.7547 47.5989 11.9221C45.5837 9.83268 43.2539 10.4444 40.4916 9.43628C38.7943 8.81684 37.7976 8.57293 36.1586 7.81414C33.8565 6.74832 32.6968 5.88987 30.5968 4.48177C28.6182 3.1551 28.0539 0.61102 25.7075 0.85109C23.361 1.09116 23.7502 3.79817 22.0995 5.35114L22.0188 5.42708C19.745 7.56657 18.2695 8.95501 15.1158 9.73756C12.1392 10.4762 9.50917 7.57508 7.1487 9.40522C5.37641 10.7793 5.07596 12.4421 5.09931 14.6638C5.12761 17.3558 8.76396 18.3698 8.25583 20.9962C7.87718 22.9534 6.20292 23.3652 5.04874 24.9962C3.44707 27.2597 0.852899 28.3533 1.45389 31.1014C1.94781 33.36 3.64003 34.3202 5.74187 35.4821Z" stroke="#F9F9F9"/>
</svg>

Vector 105
Icon · 41.34 x 38.37

</symbol>

</defs>
</svg>
